#!OML:ASF F:\VICON\USERDATA\INSTALL\rory3\rory3.ASF
:FULLY-SPECIFIED
:DEGREES
1401
root 2.05549 10.351 -4.59559 356.414 37.988 357.021
lowerback 28.9053 -0.0231096 -1.03616
upperback 12.0503 0.253628 1.27332
thorax -2.40658 0.245949 1.9072
lowerneck -12.5912 -3.97548 -11.4379
upperneck 31.5489 -3.23068 3.04474
head 12.9183 -2.25152 2.71433
rclavicle 5.47652e-014 -3.78188e-014
rhumerus -38.7019 42.867 -78.198
rradius 92.3049
rwrist 47.2672
rhand -71.9759 34.3853
rfingers 7.12502
rthumb -43.4584 -349.697
lclavicle 5.47652e-014 -3.78188e-014
lhumerus -31.2572 -29.0497 79.7232
lradius 90.1853
lwrist -31.6792
lhand -53.6749 9.98018
lfingers 7.12502
lthumb -26.1121 38.2049
rfemur -81.0631 -29.3285 18.117
rtibia 116.868
rfoot -28.5794 -11.97
rtoes 7.15278
lfemur -83.8698 19.6826 -8.29382
ltibia 109.266
lfoot -19.4175 -25.1361
ltoes -11.1518
1402
root 2.04819 10.334 -4.60529 356.114 37.8326 357.075
lowerback 28.6556 0.00208066 -1.06031
upperback 12.014 0.274648 1.28363
thorax -2.33462 0.252701 1.92548
lowerneck -12.7628 -4.07152 -11.7033
upperneck 31.5138 -3.32432 3.17493
head 12.9598 -2.30708 2.79385
rclavicle 9.29318e-015 2.52953e-014
rhumerus -38.4457 42.9934 -78.1774
rradius 92.0276
rwrist 47.0567
rhand -71.3275 33.5818
rfingers 7.12502
rthumb -42.8522 -350.716
lclavicle 9.29318e-015 2.52953e-014
lhumerus -31.0087 -28.9163 79.6803
lradius 89.9053
lwrist -31.5524
lhand -53.2599 9.44484
lfingers 7.12502
lthumb -25.7147 37.7277
rfemur -80.8544 -29.1645 17.9725
rtibia 116.943
rfoot -28.4006 -12.2492
rtoes 6.88686
lfemur -83.6736 19.8883 -8.35857
ltibia 109.448
lfoot -19.2826 -24.9516
ltoes -10.7839
1403
root 2.03739 10.3207 -4.6153 355.797 37.7293 357.155
lowerback 28.4931 0.0260515 -1.13206
upperback 11.9349 0.283291 1.32443
thorax -2.34965 0.251679 2.00835
lowerneck -12.819 -4.14924 -12.004
upperneck 31.4087 -3.36875 3.21971
head 12.9438 -2.35421 2.85297
rclavicle 1.10102e-013 -6.68413e-014
rhumerus -38.2907 43.0633 -78.1674
rradius 91.7877
rwrist 46.9701
rhand -70.9211 32.9769
rfingers 7.12502
rthumb -42.472 -351.453
lclavicle 1.10102e-013 -6.68413e-014
lhumerus -30.9341 -28.8244 79.7795
lradius 89.6462
lwrist -31.3476
lhand -53.0459 9.13003
lfingers 7.12502
lthumb -25.5097 37.4423
rfemur -80.5544 -29.0064 17.6515
rtibia 117.042
rfoot -28.2109 -12.1655
rtoes 7.61811
lfemur -83.392 20.005 -8.42318
ltibia 109.566
lfoot -19.1361 -24.73
ltoes -10.7241
1404
root 2.02346 10.3129 -4.62595 355.585 37.7442 357.42
lowerback 28.3692 0.0376342 -1.26983
upperback 11.8299 0.255017 1.26943
thorax -2.40916 0.23421 2.03492
lowerneck -12.8388 -4.19303 -12.0742
upperneck 31.3457 -3.39414 3.15749
head 12.9265 -2.3802 2.8349
rclavicle -9.06955e-015 -1.89839e-014
rhumerus -38.1882 43.065 -78.2841
rradius 91.5168
rwrist 46.9323
rhand -70.6553 31.8545
rfingers 7.12502
rthumb -42.223 -352.66
lclavicle -9.06955e-015 -1.89839e-014
lhumerus -30.963 -28.8746 79.813
lradius 89.4223
lwrist -31.2125
lhand -52.9115 8.87697
lfingers 7.12502
lthumb -25.381 37.2076
rfemur -80.1809 -29.022 17.1477
rtibia 117.132
rfoot -28.0513 -11.8997
rtoes 8.64193
lfemur -83.039 19.9592 -8.65305
ltibia 109.603
lfoot -19.1535 -24.4016
ltoes -10.9568
1405
root 2.00713 10.3077 -4.63699 355.378 37.7416 357.722
lowerback 28.2609 0.0350546 -1.48464
upperback 11.7717 0.190402 1.19264
thorax -2.42061 0.196998 2.09263
lowerneck -13.038 -4.21206 -12.088
upperneck 31.3318 -3.37308 3.08425
head 12.9613 -2.38194 2.80892
rclavicle 1.07543e-013 -9.27827e-014
rhumerus -37.9623 43.219 -78.402
rradius 91.2085
rwrist 47.0117
rhand -70.4639 31.0196
rfingers 7.12502
rthumb -42.0437 -353.556
lclavicle 1.07543e-013 -9.27827e-014
lhumerus -30.9474 -28.8535 79.76
lradius 89.1527
lwrist -31.1701
lhand -52.7198 8.53593
lfingers 7.12502
lthumb -25.1973 36.8926
rfemur -79.7755 -28.979 16.6957
rtibia 117.174
rfoot -28.1261 -11.8106
rtoes 8.69088
lfemur -82.6572 19.9431 -8.9069
ltibia 109.594
lfoot -19.0719 -24.1677
ltoes -10.5153
1406
root 1.99083 10.3038 -4.64791 355.046 37.6505 358.015
lowerback 28.1836 0.0586667 -1.75785
upperback 11.8214 0.149506 1.12229
thorax -2.32529 0.169034 2.18417
lowerneck -13.3642 -4.25256 -12.1104
upperneck 31.2799 -3.37353 3.03193
head 13.0096 -2.39085 2.78716
rclavicle 7.03698e-014 -2.31087e-014
rhumerus -37.6479 43.4429 -78.4278
rradius 90.9886
rwrist 47.1244
rhand -70.1202 29.9425
rfingers 7.12502
rthumb -41.7215 -354.74
lclavicle 7.03698e-014 -2.31087e-014
lhumerus -30.8832 -28.7798 79.684
lradius 88.9939
lwrist -31.1046
lhand -52.4031 8.30821
lfingers 7.12502
lthumb -24.8938 36.7072
rfemur -79.2308 -28.781 16.1575
rtibia 117.202
rfoot -28.1441 -11.7488
rtoes 8.64062
lfemur -82.0853 20.0018 -9.09199
ltibia 109.559
lfoot -19.0012 -23.978
ltoes -10.2124
